# xmcd
#
# Track frame offsets: 
#        150
#        12733
#        23289
#        39841
#        54453
#        72339
#        86855
#        104846
#        122242
#        135182
#        151905
#        166906
#        180547
#
# Disc length: 2465 seconds
#
# Revision: 0
# Processed by: cddbd v1.5.2PL0 Copyright (c) Steve Scherf et al.
# Submitted via: ExactAudioCopy v0.99pb4
#
DISCID=a2099f0d
DTITLE=Kathy Boyd and Phoenix Rising - Burning Down The House
DYEAR=2007
DGENRE=Bluegrass
TTITLE0=Broken Hearted Lover
TTITLE1=Twelve More Miles to Clatskanie
TTITLE2=Rhubarb Pie
TTITLE3=Stolen Kisses
TTITLE4=Mourning Dove
TTITLE5=Flying Bear Breakdown
TTITLE6=Western Girl
TTITLE7=Angel Band
TTITLE8=Burning Down The House
TTITLE9=She's A Stranger In His Mind
TTITLE10=Deschutes Valley Home
TTITLE11=Baby I'm Good For You
TTITLE12=Black Diamond Jingle
EXTD=
EXTT0=
EXTT1=
EXTT2=
EXTT3=
EXTT4=
EXTT5=
EXTT6=
EXTT7=
EXTT8=
EXTT9=
EXTT10=
EXTT11=
EXTT12=
PLAYORDER=
